<svg version="1.1" xmlns="http://www.w3.org/2000/svg" viewBox="0 0 2346.851889022778 725.1670191910398" width="2346.851889022778" height="725.1670191910398">
  <!-- svg-source:excalidraw -->
  
  <defs>
    <style class="style-fonts">
      @font-face {
        font-family: "Virgil";
        src: url("https://excalidraw.com/Virgil.woff2");
      }
      @font-face {
        font-family: "Cascadia";
        src: url("https://excalidraw.com/Cascadia.woff2");
      }
      @font-face {
        font-family: "Assistant";
        src: url("https://excalidraw.com/Assistant-Regular.woff2");
      }
    </style>
    
  </defs>
  <rect x="0" y="0" width="2346.851889022778" height="725.1670191910398" fill="#ffffff"></rect><g transform="translate(108.01202959967009 10) rotate(0 25.944488525390625 8.943195406392903)"><text x="0" y="0" font-family="Helvetica, Segoe UI Emoji" font-size="15.553383315465918px" fill="#1e1e1e" text-anchor="start" style="white-space: pre;" direction="ltr" dominant-baseline="text-before-edge">Legend</text></g><g stroke-linecap="round" transform="translate(161.06322620960384 49.19455788608104) rotate(0 30.79569777799354 22.085817360880355)"><path d="M11.04 0 C24.02 0, 37 0, 50.55 0 M11.04 0 C24.42 0, 37.8 0, 50.55 0 M50.55 0 C57.91 0, 61.59 3.68, 61.59 11.04 M50.55 0 C57.91 0, 61.59 3.68, 61.59 11.04 M61.59 11.04 C61.59 18.9, 61.59 26.76, 61.59 33.13 M61.59 11.04 C61.59 18.75, 61.59 26.46, 61.59 33.13 M61.59 33.13 C61.59 40.49, 57.91 44.17, 50.55 44.17 M61.59 33.13 C61.59 40.49, 57.91 44.17, 50.55 44.17 M50.55 44.17 C38.25 44.17, 25.95 44.17, 11.04 44.17 M50.55 44.17 C38.36 44.17, 26.18 44.17, 11.04 44.17 M11.04 44.17 C3.68 44.17, 0 40.49, 0 33.13 M11.04 44.17 C3.68 44.17, 0 40.49, 0 33.13 M0 33.13 C0 25.52, 0 17.91, 0 11.04 M0 33.13 C0 26.08, 0 19.04, 0 11.04 M0 11.04 C0 3.68, 3.68 0, 11.04 0 M0 11.04 C0 3.68, 3.68 0, 11.04 0" stroke="#1e1e1e" stroke-width="2" fill="none"></path></g><g transform="translate(36.24022798295914 61.52412701685853) rotate(0 40.10194396972656 7.154556325114328)"><text x="0" y="0" font-family="Helvetica, Segoe UI Emoji" font-size="12.442706652372735px" fill="#1e1e1e" text-anchor="start" style="white-space: pre;" direction="ltr" dominant-baseline="text-before-edge">External Entity</text></g><g stroke-linecap="round" transform="translate(162.14037633404098 122.91774953575327) rotate(0 29.003976319353214 28.278878755392554)"><path d="M58.01 28.28 C58.01 29.92, 57.86 31.58, 57.57 33.19 C57.28 34.8, 56.83 36.41, 56.26 37.95 C55.68 39.49, 54.96 41, 54.12 42.42 C53.28 43.84, 52.3 45.2, 51.22 46.46 C50.14 47.71, 48.93 48.89, 47.65 49.94 C46.36 50.99, 44.96 51.95, 43.51 52.77 C42.05 53.59, 40.5 54.29, 38.92 54.85 C37.35 55.41, 35.69 55.84, 34.04 56.13 C32.39 56.41, 30.68 56.56, 29 56.56 C27.33 56.56, 25.62 56.41, 23.97 56.13 C22.31 55.84, 20.66 55.41, 19.08 54.85 C17.51 54.29, 15.96 53.59, 14.5 52.77 C13.05 51.95, 11.65 50.99, 10.36 49.94 C9.07 48.89, 7.86 47.71, 6.79 46.46 C5.71 45.2, 4.73 43.84, 3.89 42.42 C3.05 41, 2.32 39.49, 1.75 37.95 C1.17 36.41, 0.73 34.8, 0.44 33.19 C0.15 31.58, 0 29.92, 0 28.28 C0 26.64, 0.15 24.98, 0.44 23.37 C0.73 21.76, 1.17 20.15, 1.75 18.61 C2.32 17.07, 3.05 15.56, 3.89 14.14 C4.73 12.72, 5.71 11.36, 6.79 10.1 C7.86 8.85, 9.07 7.67, 10.36 6.62 C11.65 5.56, 13.05 4.61, 14.5 3.79 C15.96 2.97, 17.51 2.27, 19.08 1.71 C20.66 1.15, 22.31 0.71, 23.97 0.43 C25.62 0.15, 27.33 0, 29 0 C30.68 0, 32.39 0.15, 34.04 0.43 C35.69 0.71, 37.35 1.15, 38.92 1.71 C40.5 2.27, 42.05 2.97, 43.51 3.79 C44.96 4.61, 46.36 5.56, 47.65 6.62 C48.93 7.67, 50.14 8.85, 51.22 10.1 C52.3 11.36, 53.28 12.72, 54.12 14.14 C54.96 15.56, 55.68 17.07, 56.26 18.61 C56.83 20.15, 57.28 21.76, 57.57 23.37 C57.86 24.98, 57.93 27.46, 58.01 28.28 C58.08 29.1, 58.08 27.46, 58.01 28.28" stroke="#1e1e1e" stroke-width="2" fill="none"></path></g><g transform="translate(50.014617753894925 141.1575961278802) rotate(0 22.468505859375 7.154556325114328)"><text x="0" y="0" font-family="Helvetica, Segoe UI Emoji" font-size="12.442706652372735px" fill="#1e1e1e" text-anchor="start" style="white-space: pre;" direction="ltr" dominant-baseline="text-before-edge">Process</text></g><g stroke-linecap="round"><g transform="translate(163.83708316927778 222.45943727485064) rotate(0 30.54119768585292 0.28276289746720806)"><path d="M0 0 C10.18 0.09, 50.9 0.47, 61.08 0.57 M0 0 C10.18 0.09, 50.9 0.47, 61.08 0.57" stroke="#1e1e1e" stroke-width="2" fill="none"></path></g><g transform="translate(163.83708316927778 222.45943727485064) rotate(0 30.54119768585292 0.28276289746720806)"><path d="M37.51 8.9 C45.13 6.21, 52.74 3.51, 61.08 0.57 M37.51 8.9 C42.58 7.1, 47.66 5.31, 61.08 0.57" stroke="#1e1e1e" stroke-width="2" fill="none"></path></g><g transform="translate(163.83708316927778 222.45943727485064) rotate(0 30.54119768585292 0.28276289746720806)"><path d="M37.67 -8.2 C45.23 -5.37, 52.8 -2.54, 61.08 0.57 M37.67 -8.2 C42.71 -6.32, 47.75 -4.43, 61.08 0.57" stroke="#1e1e1e" stroke-width="2" fill="none"></path></g></g><mask></mask><g transform="translate(44.783007924089475 212.2789373625625) rotate(0 27.99909210205078 7.154556325114328)"><text x="0" y="0" font-family="Helvetica, Segoe UI Emoji" font-size="12.442706652372735px" fill="#1e1e1e" text-anchor="start" style="white-space: pre;" direction="ltr" dominant-baseline="text-before-edge">Data Flow</text></g><g stroke-linecap="round" transform="translate(10 37.51552274942429) rotate(0 122.16474759326701 161.50864995617036)"><path d="M32 0 C91.33 0, 150.66 0, 212.33 0 M32 0 C96.16 0, 160.32 0, 212.33 0 M212.33 0 C233.66 0, 244.33 10.67, 244.33 32 M212.33 0 C233.66 0, 244.33 10.67, 244.33 32 M244.33 32 C244.33 109.77, 244.33 187.53, 244.33 291.02 M244.33 32 C244.33 121.25, 244.33 210.5, 244.33 291.02 M244.33 291.02 C244.33 312.35, 233.66 323.02, 212.33 323.02 M244.33 291.02 C244.33 312.35, 233.66 323.02, 212.33 323.02 M212.33 323.02 C153.36 323.02, 94.38 323.02, 32 323.02 M212.33 323.02 C175.27 323.02, 138.21 323.02, 32 323.02 M32 323.02 C10.67 323.02, 0 312.35, 0 291.02 M32 323.02 C10.67 323.02, 0 312.35, 0 291.02 M0 291.02 C0 211.84, 0 132.66, 0 32 M0 291.02 C0 215.79, 0 140.57, 0 32 M0 32 C0 10.67, 10.67 0, 32 0 M0 32 C0 10.67, 10.67 0, 32 0" stroke="#1e1e1e" stroke-width="2" fill="none"></path></g><g stroke-linecap="round" transform="translate(159.13176568651727 275.4122053094351) rotate(0 35.44405027294226 30.610781305801396)"><path d="M15.31 0 C25.31 0, 35.32 0, 55.58 0 M55.58 0 C65.79 0, 70.89 5.1, 70.89 15.31 M70.89 15.31 C70.89 23.48, 70.89 31.66, 70.89 45.92 M70.89 45.92 C70.89 56.12, 65.79 61.22, 55.58 61.22 M55.58 61.22 C40.7 61.22, 25.82 61.22, 15.31 61.22 M15.31 61.22 C5.1 61.22, 0 56.12, 0 45.92 M0 45.92 C0 34.71, 0 23.51, 0 15.31 M0 15.31 C0 5.1, 5.1 0, 15.31 0" stroke="#1e1e1e" stroke-width="2.5" fill="none" stroke-dasharray="8 10"></path></g><g transform="translate(42.92889348233092 295.9684566181678) rotate(0 29.7332763671875 7.154556325114321)"><text x="0" y="0" font-family="Helvetica, Segoe UI Emoji" font-size="12.442706652372735px" fill="#1e1e1e" text-anchor="start" style="white-space: pre;" direction="ltr" dominant-baseline="text-before-edge">Data Store</text></g><g stroke-linecap="round" transform="translate(1246.3124213496458 303.18873895005447) rotate(0 164.1372878782712 131.6807350458585)"><path d="M209.83 5.93 C226.24 7.42, 243.52 14.8, 257.52 22.5 C271.52 30.21, 283.6 41.33, 293.82 52.17 C304.04 63, 313.07 75.03, 318.84 87.51 C324.61 99.98, 328.11 113.34, 328.44 127.02 C328.77 140.7, 325.54 156.43, 320.82 169.56 C316.09 182.7, 309.46 194.62, 300.08 205.83 C290.7 217.03, 277.9 228.57, 264.54 236.82 C251.18 245.07, 235.76 250.75, 219.9 255.34 C204.04 259.92, 186.25 263.84, 169.37 264.31 C152.48 264.77, 134.88 262.04, 118.58 258.11 C102.28 254.18, 85.72 248.29, 71.57 240.73 C57.41 233.17, 44.01 223.66, 33.64 212.78 C23.28 201.9, 15.04 188.36, 9.37 175.45 C3.71 162.54, 0.24 148.88, -0.36 135.33 C-0.96 121.78, 0.9 107.12, 5.79 94.14 C10.67 81.15, 19.16 68.73, 28.95 57.44 C38.74 46.14, 51.06 34.54, 64.54 26.35 C78.01 18.15, 94.12 12.54, 109.82 8.26 C125.51 3.98, 141.04 0.78, 158.68 0.67 C176.33 0.57, 205.33 5.73, 215.66 7.63 C225.99 9.52, 221.22 9.98, 220.66 12.04 M86.82 16.95 C99.6 8.6, 118.43 3.75, 134.84 1.2 C151.25 -1.35, 168.49 -0.17, 185.29 1.66 C202.08 3.49, 220.52 6.57, 235.63 12.18 C250.74 17.78, 263.96 25.73, 275.94 35.28 C287.92 44.83, 299.02 57.52, 307.52 69.47 C316.01 81.42, 323.77 93.85, 326.92 106.99 C330.07 120.12, 329.1 134.79, 326.41 148.29 C323.73 161.79, 318.11 175.47, 310.79 187.99 C303.47 200.51, 293.76 213.65, 282.48 223.39 C271.2 233.14, 257.97 240.15, 243.11 246.46 C228.24 252.77, 209.99 258.87, 193.3 261.27 C176.61 263.66, 159.68 262.64, 142.96 260.82 C126.24 259, 108.24 256, 92.96 250.33 C77.68 244.67, 63.32 236.36, 51.26 226.82 C39.2 217.28, 28.69 205.04, 20.59 193.11 C12.5 181.17, 5.94 168.2, 2.7 155.21 C-0.54 142.21, -1.2 128.64, 1.16 115.12 C3.52 101.6, 9.54 86.56, 16.89 74.09 C24.23 61.61, 33.59 49.78, 45.24 40.26 C56.9 30.75, 79.53 20.77, 86.82 16.99 C94.11 13.21, 87.91 15.94, 89 17.59" stroke="#1e1e1e" stroke-width="2" fill="none"></path></g><g transform="translate(1307.067166005166 367.25713329335736) rotate(0 103.31995391845703 67.5)"><text x="103.31995391845703" y="0" font-family="Virgil, Segoe UI Emoji" font-size="36px" fill="#1e1e1e" text-anchor="middle" style="white-space: pre;" direction="ltr" dominant-baseline="text-before-edge">Car </text><text x="103.31995391845703" y="45" font-family="Virgil, Segoe UI Emoji" font-size="36px" fill="#1e1e1e" text-anchor="middle" style="white-space: pre;" direction="ltr" dominant-baseline="text-before-edge">Reservation</text><text x="103.31995391845703" y="90" font-family="Virgil, Segoe UI Emoji" font-size="36px" fill="#1e1e1e" text-anchor="middle" style="white-space: pre;" direction="ltr" dominant-baseline="text-before-edge">System</text></g><g stroke-linecap="round" transform="translate(535.9782969632893 364.3924434344975) rotate(0 155.79124134680075 72.33173115160685)"><path d="M32 0 C117.67 -0.31, 202.62 0.07, 279.58 0 M32 0 C90.71 1.31, 150.63 1.59, 279.58 0 M279.58 0 C299.73 -1.85, 310.71 10.95, 311.58 32 M279.58 0 C301.15 0.63, 311.39 10.28, 311.58 32 M311.58 32 C312.45 53.03, 311 72.1, 311.58 112.66 M311.58 32 C311.11 63.57, 311.4 95.64, 311.58 112.66 M311.58 112.66 C311.06 135.33, 302.33 145.47, 279.58 144.66 M311.58 112.66 C309.8 135.28, 299.84 145.83, 279.58 144.66 M279.58 144.66 C190.74 143.34, 104.18 144.72, 32 144.66 M279.58 144.66 C215.31 146.61, 151.67 146.04, 32 144.66 M32 144.66 C8.8 145.58, -0.62 134, 0 112.66 M32 144.66 C9.58 145.3, 1.12 135.93, 0 112.66 M0 112.66 C-0.01 94.06, -1.27 78.97, 0 32 M0 112.66 C-1.25 87.11, -0.78 61.3, 0 32 M0 32 C0.64 12.21, 12.14 0.91, 32 0 M0 32 C-1.63 10.39, 12.8 2.11, 32 0" stroke="#1e1e1e" stroke-width="2" fill="none"></path></g><g transform="translate(611.0575632124337 414.22417458610437) rotate(0 80.71197509765625 22.5)"><text x="80.71197509765625" y="0" font-family="Virgil, Segoe UI Emoji" font-size="36px" fill="#1e1e1e" text-anchor="middle" style="white-space: pre;" direction="ltr" dominant-baseline="text-before-edge">Customer</text></g><g stroke-linecap="round" transform="translate(1991.885361702481 349.55512171134103) rotate(0 172.48326366014828 73.25908144670245)"><path d="M32 0 C140.43 0.05, 249.13 -2.79, 312.97 0 M32 0 C121.26 0.19, 211.45 0.03, 312.97 0 M312.97 0 C333.74 0.92, 343.29 11.01, 344.97 32 M312.97 0 C333.59 -2.27, 344.76 10.73, 344.97 32 M344.97 32 C343.65 54.81, 344.47 73.11, 344.97 114.52 M344.97 32 C346.54 57.92, 345.19 85.84, 344.97 114.52 M344.97 114.52 C346.81 136.23, 332.33 146.86, 312.97 146.52 M344.97 114.52 C344.73 137.94, 335.8 146.06, 312.97 146.52 M312.97 146.52 C241.44 144.35, 170.47 145.34, 32 146.52 M312.97 146.52 C229.44 145.91, 144.62 144.58, 32 146.52 M32 146.52 C8.87 147.19, -1.85 135.07, 0 114.52 M32 146.52 C10.07 146.54, 0.06 134.58, 0 114.52 M0 114.52 C-0.32 98.14, -0.17 79.61, 0 32 M0 114.52 C-1.37 95.03, -0.28 73.88, 0 32 M0 32 C1.88 12.48, 9.12 0.57, 32 0 M0 32 C0.2 12.09, 12.16 -1.14, 32 0" stroke="#1e1e1e" stroke-width="2" fill="none"></path></g><g transform="translate(2089.1286656458324 400.3142031580435) rotate(0 75.23995971679688 22.5)"><text x="75.23995971679688" y="0" font-family="Virgil, Segoe UI Emoji" font-size="36px" fill="#1e1e1e" text-anchor="middle" style="white-space: pre;" direction="ltr" dominant-baseline="text-before-edge">Employee</text></g><g mask="url(#mask-yimg-C-C_rH3PxHOBwfw9)" stroke-linecap="round"><g transform="translate(853.1250936762447 393.39689917429774) rotate(0 201.23037993738194 -29.33947884346319)"><path d="M-0.79 0.25 C39.3 -9.36, 172.62 -55.59, 239.91 -57.81 C307.2 -60.03, 375.68 -20.57, 402.95 -13.07 M0.99 -0.66 C41.04 -10.59, 172.4 -57.57, 239.31 -59.48 C306.21 -61.4, 375.54 -20.07, 402.44 -12.15" stroke="#1e1e1e" stroke-width="2" fill="none"></path></g><g transform="translate(853.1250936762447 393.39689917429774) rotate(0 201.23037993738194 -29.33947884346319)"><path d="M377.46 -13.12 C384.04 -11.62, 391.22 -11.66, 402.44 -12.15 M377.46 -13.12 C382.55 -12.31, 390 -12.84, 402.44 -12.15" stroke="#1e1e1e" stroke-width="2" fill="none"></path></g><g transform="translate(853.1250936762447 393.39689917429774) rotate(0 201.23037993738194 -29.33947884346319)"><path d="M383.93 -28.95 C388.9 -23.59, 394.48 -19.72, 402.44 -12.15 M383.93 -28.95 C387.63 -24.41, 393.55 -21.2, 402.44 -12.15" stroke="#1e1e1e" stroke-width="2" fill="none"></path></g></g><mask id="mask-yimg-C-C_rH3PxHOBwfw9"><rect x="0" y="0" fill="#fff" width="1355.5858535510085" height="552.0758568612241"></rect><rect x="956.7279313742863" y="312.2179414873714" fill="#000" width="271.2958984375" height="45" opacity="1"></rect></mask><g transform="translate(956.7279313742863 312.2179414873714) rotate(0 97.47775765983971 51.53239209008701)"><text x="135.64794921875" y="0" font-family="Virgil, Segoe UI Emoji" font-size="36px" fill="#1e1e1e" text-anchor="middle" style="white-space: pre;" direction="ltr" dominant-baseline="text-before-edge">booking request</text></g><g mask="url(#mask-ZajYO-LzO241y9WUzENCU)" stroke-linecap="round"><g transform="translate(1567.1683362446101 347.7005626203364) rotate(0 204.93971036817072 -6.049308197384839)"><path d="M0.15 -0.63 C31.59 -4.79, 119.94 -25.95, 188.31 -23.91 C256.68 -21.86, 373.36 5.68, 410.38 11.65 M-1.23 1.66 C30.17 -2.37, 119.36 -27.77, 187.88 -25.92 C256.4 -24.07, 372.7 6.3, 409.88 12.78" stroke="#1e1e1e" stroke-width="2" fill="none"></path></g><g transform="translate(1567.1683362446101 347.7005626203364) rotate(0 204.93971036817072 -6.049308197384839)"><path d="M385.13 16.28 C390.79 16.95, 398.92 15.18, 409.88 12.78 M385.13 16.28 C392.39 15.55, 399.05 15.26, 409.88 12.78" stroke="#1e1e1e" stroke-width="2" fill="none"></path></g><g transform="translate(1567.1683362446101 347.7005626203364) rotate(0 204.93971036817072 -6.049308197384839)"><path d="M388.66 -0.45 C393.51 4.77, 400.67 7.56, 409.88 12.78 M388.66 -0.45 C395.05 3.33, 400.76 7.55, 409.88 12.78" stroke="#1e1e1e" stroke-width="2" fill="none"></path></g></g><mask id="mask-ZajYO-LzO241y9WUzENCU"><rect x="0" y="0" fill="#fff" width="2077.047756980952" height="483.8230295770445"></rect><rect x="1600.8411139083516" y="301.09002094459754" fill="#000" width="307.2958984375" height="45" opacity="1"></rect></mask><g transform="translate(1600.8411139083516 301.09002094459754) rotate(0 170.902630486823 39.98939316457864)"><text x="153.64794921875" y="0" font-family="Virgil, Segoe UI Emoji" font-size="36px" fill="#1e1e1e" text-anchor="middle" style="white-space: pre;" direction="ltr" dominant-baseline="text-before-edge">  booking request</text></g><g mask="url(#mask-oSGxx7SNYdwoaR3idX6DT)" stroke-linecap="round"><g transform="translate(1977.0477569809516 485.9575423402882) rotate(0 -202.15769485768067 27.31385371696338)"><path d="M-0.88 -0.97 C-35.41 8.24, -138.77 52.19, -206.16 54.83 C-273.56 57.48, -372.18 21.63, -405.25 14.9 M0.86 1.14 C-33.95 10, -139.98 50.82, -207.27 52.82 C-274.55 54.82, -369.98 19.88, -402.84 13.12" stroke="#1e1e1e" stroke-width="2" fill="none"></path></g><g transform="translate(1977.0477569809516 485.9575423402882) rotate(0 -202.15769485768067 27.31385371696338)"><path d="M-377.93 11.02 C-389.19 11.15, -396.87 10.91, -402.84 13.12 M-377.93 11.02 C-387.74 11.53, -396.98 11.85, -402.84 13.12" stroke="#1e1e1e" stroke-width="2" fill="none"></path></g><g transform="translate(1977.0477569809516 485.9575423402882) rotate(0 -202.15769485768067 27.31385371696338)"><path d="M-382.41 27.52 C-391.87 21.31, -397.82 14.68, -402.84 13.12 M-382.41 27.52 C-390.44 21.58, -397.93 15.47, -402.84 13.12" stroke="#1e1e1e" stroke-width="2" fill="none"></path></g></g><mask id="mask-oSGxx7SNYdwoaR3idX6DT"><rect x="0" y="0" fill="#fff" width="2481.363146696313" height="640.585249774215"></rect><rect x="1660.319194825296" y="495.58524977421496" fill="#000" width="221.7239227294922" height="90" opacity="1"></rect></mask><g transform="translate(1660.3191948252959 495.58524977421496) rotate(0 114.53547582098236 17.376014737962677)"><text x="110.8619613647461" y="0" font-family="Virgil, Segoe UI Emoji" font-size="36px" fill="#1e1e1e" text-anchor="middle" style="white-space: pre;" direction="ltr" dominant-baseline="text-before-edge">Appointment </text><text x="110.8619613647461" y="45" font-family="Virgil, Segoe UI Emoji" font-size="36px" fill="#1e1e1e" text-anchor="middle" style="white-space: pre;" direction="ltr" dominant-baseline="text-before-edge">confirmation</text></g><g mask="url(#mask-PjxnhpHqr0uiBk1uGWJgA)" stroke-linecap="round"><g transform="translate(1259.295254731391 510.9105355783088) rotate(0 -200.3031357666763 20.401211244949877)"><path d="M-0.11 0.97 C-33.1 9.31, -132.29 51.37, -198.94 49.72 C-265.59 48.08, -366.56 1, -400.02 -8.89 M-1.63 0.44 C-34.74 8.97, -133.67 52.99, -200.14 51.08 C-266.62 49.16, -367.34 -1.07, -400.48 -11.04" stroke="#1e1e1e" stroke-width="2" fill="none"></path></g><g transform="translate(1259.295254731391 510.9105355783088) rotate(0 -200.3031357666763 20.401211244949877)"><path d="M-375.49 -10.58 C-379.3 -11.52, -386.94 -9.83, -400.48 -11.04 M-375.49 -10.58 C-384.25 -10.38, -392.99 -10.8, -400.48 -11.04" stroke="#1e1e1e" stroke-width="2" fill="none"></path></g><g transform="translate(1259.295254731391 510.9105355783088) rotate(0 -200.3031357666763 20.401211244949877)"><path d="M-381.63 5.38 C-384.07 0.98, -390.38 -0.8, -400.48 -11.04 M-381.63 5.38 C-388.48 0.31, -395.18 -5.4, -400.48 -11.04" stroke="#1e1e1e" stroke-width="2" fill="none"></path></g></g><mask id="mask-PjxnhpHqr0uiBk1uGWJgA"><rect x="0" y="0" fill="#fff" width="1759.9015262647436" height="670.2595394725604"></rect><rect x="949.9847874405664" y="515.9862487703845" fill="#000" width="221.7239227294922" height="90" opacity="1"></rect></mask><g transform="translate(949.9847874405664 515.9862487703845) rotate(0 109.0120646950711 14.973599096497033)"><text x="110.8619613647461" y="0" font-family="Virgil, Segoe UI Emoji" font-size="36px" fill="#1e1e1e" text-anchor="middle" style="white-space: pre;" direction="ltr" dominant-baseline="text-before-edge">Appointment </text><text x="110.8619613647461" y="45" font-family="Virgil, Segoe UI Emoji" font-size="36px" fill="#1e1e1e" text-anchor="middle" style="white-space: pre;" direction="ltr" dominant-baseline="text-before-edge">confirmation</text></g><g mask="url(#mask-60KqlGwyLf4SiacaWufrw)" stroke-linecap="round"><g transform="translate(799.3399793037865 525.7477865518717) rotate(0 251.30616387905093 83.45961631958403)"><path d="M-0.14 -0.06 C42.87 27.67, 175 164.39, 258.68 167.51 C342.36 170.63, 461.19 43.3, 501.94 18.65 M-1.68 -1.14 C41.21 26.75, 174.44 162.17, 258.19 165.69 C341.94 169.22, 459.9 44.71, 500.83 20.03" stroke="#1e1e1e" stroke-width="2" fill="none"></path></g><g transform="translate(799.3399793037865 525.7477865518717) rotate(0 251.30616387905093 83.45961631958403)"><path d="M487.66 41.28 C491.94 35.36, 497.61 25.38, 500.83 20.03 M487.66 41.28 C491.47 35.28, 495.06 27.14, 500.83 20.03" stroke="#1e1e1e" stroke-width="2" fill="none"></path></g><g transform="translate(799.3399793037865 525.7477865518717) rotate(0 251.30616387905093 83.45961631958403)"><path d="M477.08 27.84 C485.17 26.62, 494.53 21.31, 500.83 20.03 M477.08 27.84 C484.22 25.91, 491.08 21.91, 500.83 20.03" stroke="#1e1e1e" stroke-width="2" fill="none"></path></g></g><mask id="mask-60KqlGwyLf4SiacaWufrw"><rect x="0" y="0" fill="#fff" width="1401.9523070618884" height="792.6670191910398"></rect><rect x="947.4995344122028" y="670.1670191910398" fill="#000" width="219.27590942382812" height="45" opacity="1"></rect></mask><g transform="translate(947.4995344122028 670.1670191910398) rotate(0 101.97447938124253 -61.20849239890886)"><text x="109.63795471191406" y="0" font-family="Virgil, Segoe UI Emoji" font-size="36px" fill="#1e1e1e" text-anchor="middle" style="white-space: pre;" direction="ltr" dominant-baseline="text-before-edge">Review data</text></g><g mask="url(#mask-3_AF0ZKeGDMTjetQqWMTl)" stroke-linecap="round"><g transform="translate(1287.115126837919 327.29935137538666) rotate(0 -229.9776377138022 -47.293803805975585)"><path d="M-0.6 0.92 C-35.79 -16.6, -134.46 -107.22, -210.96 -105.54 C-287.47 -103.85, -417.98 -8.56, -459.64 11.03 M1.28 0.36 C-34.04 -16.91, -134.75 -105.9, -211.67 -103.91 C-288.59 -101.92, -418.65 -6.68, -460.24 12.3" stroke="#1e1e1e" stroke-width="2" fill="none"></path></g><g transform="translate(1287.115126837919 327.29935137538666) rotate(0 -229.9776377138022 -47.293803805975585)"><path d="M-444.15 -6.83 C-447.73 -0.12, -454.03 5.64, -460.24 12.3 M-444.15 -6.83 C-448.78 -1.15, -452.82 5.1, -460.24 12.3" stroke="#1e1e1e" stroke-width="2" fill="none"></path></g><g transform="translate(1287.115126837919 327.29935137538666) rotate(0 -229.9776377138022 -47.293803805975585)"><path d="M-435.61 7.99 C-441.83 10, -450.82 11.1, -460.24 12.3 M-435.61 7.99 C-442.62 9.4, -449.15 11.33, -460.24 12.3" stroke="#1e1e1e" stroke-width="2" fill="none"></path></g></g><mask id="mask-3_AF0ZKeGDMTjetQqWMTl"><rect x="0" y="0" fill="#fff" width="1847.0704022655234" height="544.1428000728855"></rect><rect x="974.6321143517109" y="199.08382322066166" fill="#000" width="202.10391235351562" height="45" opacity="1"></rect></mask><g transform="translate(974.6321143517109 199.08382322066166) rotate(0 83.0044126340623 81.58420100725164)"><text x="101.05195617675781" y="0" font-family="Virgil, Segoe UI Emoji" font-size="36px" fill="#1e1e1e" text-anchor="middle" style="white-space: pre;" direction="ltr" dominant-baseline="text-before-edge">Car details</text></g><g mask="url(#mask-ltAUYqa0_lZJcOdHniqpW)" stroke-linecap="round"><g transform="translate(862.3983843784208 436.7242099609008) rotate(0 185.4658140435199 0)"><path d="M0.37 0.19 C62.26 -0.13, 309.65 -0.99, 371.24 -0.84 M-0.9 -0.76 C60.87 -0.43, 308.26 0.24, 370.45 0.25" stroke="#1e1e1e" stroke-width="2" fill="none"></path></g><g transform="translate(862.3983843784208 436.7242099609008) rotate(0 185.4658140435199 0)"><path d="M346.94 8.76 C353.98 6.73, 359.07 2.01, 370.45 0.25 M346.94 8.76 C355.22 5.97, 365.56 1.16, 370.45 0.25" stroke="#1e1e1e" stroke-width="2" fill="none"></path></g><g transform="translate(862.3983843784208 436.7242099609008) rotate(0 185.4658140435199 0)"><path d="M346.97 -8.34 C354.15 -5.42, 359.23 -5.19, 370.45 0.25 M346.97 -8.34 C355.38 -4.47, 365.71 -2.61, 370.45 0.25" stroke="#1e1e1e" stroke-width="2" fill="none"></path></g></g><mask id="mask-ltAUYqa0_lZJcOdHniqpW"><rect x="0" y="0" fill="#fff" width="1333.3300124654606" height="536.7242099609008"></rect><rect x="968.4482285733079" y="391.7242099609008" fill="#000" width="158.83193969726562" height="90" opacity="1"></rect></mask><g transform="translate(968.4482285733079 391.7242099609008) rotate(0 79.11846218342885 44.69640586711981)"><text x="79.41596984863281" y="0" font-family="Virgil, Segoe UI Emoji" font-size="36px" fill="#1e1e1e" text-anchor="middle" style="white-space: pre;" direction="ltr" dominant-baseline="text-before-edge">Purchase</text><text x="79.41596984863281" y="45" font-family="Virgil, Segoe UI Emoji" font-size="36px" fill="#1e1e1e" text-anchor="middle" style="white-space: pre;" direction="ltr" dominant-baseline="text-before-edge">Data</text></g><g mask="url(#mask-ZspeVyAsNgUaUV9YllSgv)" stroke-linecap="round"><g transform="translate(1591.278948669942 423.74158882793574) rotate(0 190.1025301442014 1.8546652153945615)"><path d="M-0.43 -0.67 C62.98 -0.15, 317.62 2.67, 380.97 3.47 M1.55 1.6 C64.82 2.27, 317.57 4.81, 380.43 4.88" stroke="#1e1e1e" stroke-width="2" fill="none"></path></g><g transform="translate(1591.278948669942 423.74158882793574) rotate(0 190.1025301442014 1.8546652153945615)"><path d="M356.88 13.28 C363.82 11.77, 372.6 6.79, 380.43 4.88 M356.88 13.28 C365.79 11.24, 372.61 7.78, 380.43 4.88" stroke="#1e1e1e" stroke-width="2" fill="none"></path></g><g transform="translate(1591.278948669942 423.74158882793574) rotate(0 190.1025301442014 1.8546652153945615)"><path d="M356.99 -3.82 C363.94 0.53, 372.69 1.41, 380.43 4.88 M356.99 -3.82 C365.73 -0.12, 372.52 2.17, 380.43 4.88" stroke="#1e1e1e" stroke-width="2" fill="none"></path></g></g><mask id="mask-ZspeVyAsNgUaUV9YllSgv"><rect x="0" y="0" fill="#fff" width="2071.484008958345" height="527.4509192587249"></rect><rect x="1680.6535125055495" y="403.0962540433303" fill="#000" width="201.4559326171875" height="45" opacity="1"></rect></mask><g transform="translate(1680.6535125055495 403.0962540433303) rotate(0 100.89871782325213 22.752245010528714)"><text x="100.72796630859375" y="0" font-family="Virgil, Segoe UI Emoji" font-size="36px" fill="#1e1e1e" text-anchor="middle" style="white-space: pre;" direction="ltr" dominant-baseline="text-before-edge">Sales data</text></g><g mask="url(#mask-AG3VwZhUgdQBzfAoXfdBq)" stroke-linecap="round"><g transform="translate(2051.739616823089 328.7247989300574) rotate(0 -264.3575712374891 -56.78324542942184)"><path d="M-0.77 -0.6 C-45.81 -19.64, -182.3 -112.03, -270.31 -113.12 C-358.33 -114.21, -485.86 -24.93, -528.86 -7.15 M1.03 1.7 C-44.19 -17.2, -182.95 -113.18, -271.41 -115.01 C-359.86 -116.83, -486.97 -27.04, -529.7 -9.28" stroke="#1e1e1e" stroke-width="2" fill="none"></path></g><g transform="translate(2051.739616823089 328.7247989300574) rotate(0 -264.3575712374891 -56.78324542942184)"><path d="M-513.02 -27.91 C-518.74 -23.02, -521.87 -17.34, -529.7 -9.28 M-513.02 -27.91 C-519.27 -22.08, -523.74 -16.19, -529.7 -9.28" stroke="#1e1e1e" stroke-width="2" fill="none"></path></g><g transform="translate(2051.739616823089 328.7247989300574) rotate(0 -264.3575712374891 -56.78324542942184)"><path d="M-504.95 -12.83 C-513.17 -12.41, -518.67 -11.14, -529.7 -9.28 M-504.95 -12.83 C-513.96 -11.98, -521.13 -11.14, -529.7 -9.28" stroke="#1e1e1e" stroke-width="2" fill="none"></path></g></g><mask id="mask-AG3VwZhUgdQBzfAoXfdBq"><rect x="0" y="0" fill="#fff" width="2680.454759298067" height="542.291289788901"></rect><rect x="1696.1137848981675" y="170.1583080712137" fill="#000" width="171.17994689941406" height="90" opacity="1"></rect></mask><g transform="translate(1696.113784898168 170.1583080712137) rotate(0 91.29009731528424 101.8992502119988)"><text x="85.58997344970703" y="0" font-family="Virgil, Segoe UI Emoji" font-size="36px" fill="#1e1e1e" text-anchor="middle" style="white-space: pre;" direction="ltr" dominant-baseline="text-before-edge">Managing </text><text x="85.58997344970703" y="45" font-family="Virgil, Segoe UI Emoji" font-size="36px" fill="#1e1e1e" text-anchor="middle" style="white-space: pre;" direction="ltr" dominant-baseline="text-before-edge">sales</text></g></svg>